<svg width="138" height="15" viewBox="0 0 138 15" fill="none" xmlns="http://www.w3.org/2000/svg">
<path d="M6.4635 12.16C5.68483 12.16 4.95417 12.032 4.2715 11.776C3.5995 11.52 3.01283 11.1413 2.5115 10.64C2.02083 10.1387 1.6315 9.52533 1.3435 8.8C1.0555 8.064 0.911498 7.216 0.911498 6.256C0.911498 5.296 1.0555 4.45333 1.3435 3.728C1.6315 2.992 2.02083 2.37867 2.5115 1.888C3.01283 1.38667 3.5995 1.01333 4.2715 0.768C4.95417 0.512 5.68483 0.384 6.4635 0.384C7.25283 0.384 7.9835 0.512 8.6555 0.768C9.33817 1.01333 9.93017 1.38133 10.4315 1.872C10.9328 2.36267 11.3222 2.976 11.5995 3.712C11.8875 4.43733 12.0315 5.28 12.0315 6.24C12.0315 7.18933 11.8875 8.032 11.5995 8.768C11.3222 9.504 10.9328 10.1227 10.4315 10.624C9.93017 11.1253 9.33817 11.5093 8.6555 11.776C7.9835 12.032 7.25283 12.16 6.4635 12.16ZM6.4635 10.496C6.96483 10.496 7.42883 10.4213 7.8555 10.272C8.29283 10.1227 8.66617 9.88267 8.9755 9.552C9.2955 9.21067 9.54617 8.77333 9.7275 8.24C9.90883 7.696 9.9995 7.04 9.9995 6.272C9.9995 5.504 9.90883 4.85333 9.7275 4.32C9.54617 3.78667 9.2955 3.35467 8.9755 3.024C8.66617 2.68267 8.29283 2.43733 7.8555 2.288C7.42883 2.128 6.96483 2.048 6.4635 2.048C5.96217 2.048 5.49817 2.128 5.0715 2.288C4.64483 2.43733 4.2715 2.68267 3.9515 3.024C3.64217 3.35467 3.39683 3.78667 3.2155 4.32C3.03417 4.85333 2.9435 5.504 2.9435 6.272C2.9435 7.04 3.03417 7.696 3.2155 8.24C3.39683 8.77333 3.64217 9.21067 3.9515 9.552C4.2715 9.88267 4.64483 10.1227 5.0715 10.272C5.49817 10.4213 5.96217 10.496 6.4635 10.496ZM13.6225 3.696H20.6785V12H18.8225V5.2H15.4785V12H13.6225V3.696ZM23.4031 9.056C23.5205 8.512 23.5951 7.808 23.6271 6.944C23.6698 6.06933 23.6911 4.98667 23.6911 3.696H29.6591V12H27.8031V5.2H25.3871C25.3658 6.29867 25.3231 7.26933 25.2591 8.112C25.1951 8.95467 25.0618 9.66933 24.8591 10.256C24.6671 10.832 24.3845 11.2747 24.0111 11.584C23.6485 11.8933 23.1578 12.048 22.5391 12.048C22.4538 12.048 22.3685 12.0427 22.2831 12.032C22.2085 12.032 22.1285 12.0267 22.0431 12.016V10.288C22.1498 10.3093 22.2298 10.32 22.2831 10.32C22.5711 10.32 22.8005 10.2187 22.9711 10.016C23.1525 9.80267 23.2965 9.48267 23.4031 9.056ZM36.4652 10.544C36.3799 10.736 36.2626 10.928 36.1132 11.12C35.9746 11.312 35.7986 11.488 35.5852 11.648C35.3826 11.7973 35.1372 11.92 34.8492 12.016C34.5612 12.112 34.2252 12.16 33.8412 12.16C33.4786 12.16 33.1426 12.1067 32.8332 12C32.5239 11.904 32.2519 11.7547 32.0172 11.552C31.7932 11.3493 31.6119 11.0987 31.4732 10.8C31.3452 10.4907 31.2812 10.1387 31.2812 9.744C31.2812 8.83733 31.6172 8.16 32.2892 7.712C32.9612 7.25333 33.9106 7.024 35.1372 7.024H36.4012V6.512C36.4012 5.968 36.2626 5.59467 35.9852 5.392C35.7079 5.17867 35.2492 5.072 34.6092 5.072C34.0652 5.072 33.5532 5.152 33.0732 5.312C32.6039 5.46133 32.1879 5.63733 31.8252 5.84V4.288C32.1559 4.10667 32.5932 3.936 33.1372 3.776C33.6812 3.616 34.2732 3.536 34.9132 3.536C35.9799 3.536 36.8012 3.76 37.3772 4.208C37.9639 4.64533 38.2572 5.34933 38.2572 6.32V10.656C38.2572 10.752 38.2572 10.864 38.2572 10.992C38.2679 11.1093 38.2732 11.232 38.2732 11.36C38.2839 11.488 38.2946 11.6107 38.3052 11.728C38.3159 11.8347 38.3266 11.9253 38.3372 12H36.6252C36.5932 11.8507 36.5612 11.6427 36.5292 11.376C36.5079 11.1093 36.4919 10.8693 36.4812 10.656L36.4652 10.544ZM34.3532 10.72C34.7479 10.72 35.0732 10.64 35.3292 10.48C35.5959 10.3093 35.8092 10.1173 35.9692 9.904C36.1292 9.68 36.2412 9.46133 36.3052 9.248C36.3692 9.03467 36.4012 8.88533 36.4012 8.8V8.24H35.2492C34.5132 8.24 33.9746 8.35733 33.6332 8.592C33.2919 8.816 33.1212 9.136 33.1212 9.552C33.1212 9.91467 33.2226 10.2027 33.4252 10.416C33.6386 10.6187 33.9479 10.72 34.3532 10.72ZM43.782 5.2V12H41.926V5.2H39.414V3.696H46.342V5.2H43.782ZM49.5175 9.488L53.3575 3.696H55.1815V12H53.3415V6.24L49.5335 12H47.6775V3.696H49.5175V9.488ZM60.9032 5.2V12H59.0472V5.2H56.5352V3.696H63.4632V5.2H60.9032ZM71.4867 9.136C71.4867 9.616 71.3961 10.0373 71.2147 10.4C71.0441 10.7627 70.8041 11.0613 70.4947 11.296C70.1854 11.5307 69.8174 11.7067 69.3907 11.824C68.9641 11.9413 68.4947 12 67.9827 12H64.7827V3.696H66.6387V6.384H68.0307C69.1187 6.384 69.9667 6.608 70.5747 7.056C71.1827 7.504 71.4867 8.19733 71.4867 9.136ZM66.6387 7.856V10.544H67.8387C68.3507 10.544 68.7667 10.4427 69.0867 10.24C69.4067 10.0267 69.5667 9.68 69.5667 9.2C69.5667 8.72 69.4227 8.37867 69.1347 8.176C68.8467 7.96267 68.4307 7.856 67.8867 7.856H66.6387ZM78.9335 8.624H78.2135V12H76.3575V3.696H78.2135V7.12H78.9975L81.6375 3.696H83.5895L80.4535 7.696L83.7175 12H81.5255L78.9335 8.624ZM88.0806 12.16C87.494 12.16 86.95 12.064 86.4486 11.872C85.9473 11.68 85.51 11.4027 85.1366 11.04C84.774 10.6667 84.486 10.2133 84.2726 9.68C84.07 9.14667 83.9686 8.53333 83.9686 7.84C83.9686 7.14667 84.07 6.53333 84.2726 6C84.486 5.46667 84.774 5.01867 85.1366 4.656C85.51 4.28267 85.9473 4.00533 86.4486 3.824C86.95 3.632 87.494 3.536 88.0806 3.536C88.6673 3.536 89.2113 3.632 89.7126 3.824C90.214 4.00533 90.6513 4.28267 91.0246 4.656C91.398 5.01867 91.6913 5.46667 91.9046 6C92.118 6.53333 92.2246 7.14667 92.2246 7.84C92.2246 8.53333 92.118 9.14667 91.9046 9.68C91.6913 10.2133 91.398 10.6667 91.0246 11.04C90.6513 11.4027 90.214 11.68 89.7126 11.872C89.2113 12.064 88.6673 12.16 88.0806 12.16ZM88.0806 10.608C88.7206 10.608 89.2486 10.384 89.6646 9.936C90.0913 9.488 90.3046 8.78933 90.3046 7.84C90.3046 6.90133 90.0913 6.208 89.6646 5.76C89.2486 5.30133 88.7206 5.072 88.0806 5.072C87.4513 5.072 86.9233 5.30133 86.4966 5.76C86.0806 6.208 85.8726 6.90133 85.8726 7.84C85.8726 8.78933 86.0806 9.488 86.4966 9.936C86.9233 10.384 87.4513 10.608 88.0806 10.608ZM98.2735 12.16C97.6442 12.16 97.1002 12.0213 96.6415 11.744C96.1935 11.456 95.8308 11.072 95.5535 10.592V14.832H93.6975V3.696H95.3935L95.5215 5.168C95.7988 4.66667 96.1668 4.272 96.6255 3.984C97.0842 3.68533 97.6442 3.536 98.3055 3.536C98.7962 3.536 99.2602 3.62667 99.6975 3.808C100.146 3.97867 100.535 4.24533 100.866 4.608C101.196 4.96 101.458 5.408 101.65 5.952C101.852 6.48533 101.954 7.11467 101.954 7.84C101.954 8.576 101.852 9.216 101.65 9.76C101.458 10.2933 101.191 10.7413 100.85 11.104C100.519 11.456 100.13 11.7227 99.6815 11.904C99.2335 12.0747 98.7642 12.16 98.2735 12.16ZM97.8255 10.608C98.4868 10.608 99.0202 10.384 99.4255 9.936C99.8415 9.47733 100.05 8.77867 100.05 7.84C100.05 6.912 99.8415 6.21867 99.4255 5.76C99.0202 5.30133 98.4922 5.072 97.8415 5.072C97.5108 5.072 97.2068 5.13067 96.9295 5.248C96.6522 5.35467 96.4068 5.52533 96.1935 5.76C95.9908 5.99467 95.8308 6.288 95.7135 6.64C95.5962 6.98133 95.5375 7.38133 95.5375 7.84C95.5375 8.30933 95.5962 8.72 95.7135 9.072C95.8308 9.41333 95.9908 9.70133 96.1935 9.936C96.3962 10.16 96.6362 10.3307 96.9135 10.448C97.2015 10.5547 97.5055 10.608 97.8255 10.608ZM109.558 9.616C109.558 10.064 109.462 10.448 109.27 10.768C109.088 11.088 108.832 11.3547 108.502 11.568C108.182 11.7707 107.803 11.92 107.366 12.016C106.928 12.112 106.464 12.16 105.974 12.16C105.27 12.16 104.694 12.0907 104.246 11.952C103.798 11.8027 103.451 11.6533 103.206 11.504V9.984C103.515 10.1867 103.899 10.352 104.358 10.48C104.827 10.5973 105.334 10.656 105.878 10.656C106.443 10.656 106.891 10.5707 107.222 10.4C107.552 10.2293 107.718 9.94133 107.718 9.536C107.718 9.152 107.568 8.88 107.27 8.72C106.971 8.54933 106.507 8.464 105.878 8.464H104.71V7.056H105.91C106.411 7.056 106.795 6.97067 107.062 6.8C107.339 6.62933 107.478 6.37333 107.478 6.032C107.478 5.65867 107.323 5.40267 107.014 5.264C106.715 5.11467 106.326 5.04 105.846 5.04C105.323 5.04 104.854 5.104 104.438 5.232C104.022 5.34933 103.654 5.50933 103.334 5.712V4.192C103.6 4.02133 103.963 3.872 104.422 3.744C104.88 3.60533 105.446 3.536 106.118 3.536C107.142 3.536 107.92 3.72267 108.454 4.096C108.987 4.46933 109.254 5.01333 109.254 5.728C109.254 6.272 109.104 6.69867 108.806 7.008C108.507 7.30667 108.07 7.52533 107.494 7.664C108.87 7.87733 109.558 8.528 109.558 9.616ZM113.127 9.488L116.967 3.696H118.791V12H116.951V6.24L113.143 12H111.287V3.696H113.127V9.488ZM126.161 8.496H122.657V12H120.801V3.696H122.657V6.992H126.161V3.696H128.017V12H126.161V8.496ZM134.498 11.904C134.317 12.4053 134.119 12.848 133.906 13.232C133.703 13.616 133.463 13.936 133.186 14.192C132.919 14.4587 132.605 14.656 132.242 14.784C131.89 14.9227 131.474 14.992 130.994 14.992C130.471 14.992 130.023 14.9067 129.65 14.736V13.072C129.799 13.1893 129.986 13.28 130.21 13.344C130.434 13.408 130.679 13.44 130.946 13.44C131.309 13.44 131.607 13.36 131.842 13.2C132.077 13.0507 132.29 12.8213 132.482 12.512L129.138 3.696H131.138L133.458 10.144L135.762 3.696H137.49L134.498 11.904Z" fill="#21201F"/>
</svg>
